#!OML:ASF H:\Terrain\Patient Classification 1\Walking\steve\steve.ASF
:FULLY-SPECIFIED
:DEGREES
205
root 8.14615 16.4371 8.02084 8.00019 -0.311218 -4.2594
lowerback 1.76828 3.08159 5.65094
upperback -2.84196 4.36723 1.25111
thorax -3.60919 2.03486 -2.06255
lowerneck -9.99169 -2.1064 -2.43003
upperneck 13.7828 -2.95487 3.22627
head 5.89697 -1.3175 1.17998
rclavicle -2.29348e-014 3.97569e-016
rhumerus -28.4264 -6.64818 -85.0493
rradius 43.5004
rwrist -9.24473
rhand -21.9178 -36.9783
rfingers 7.12502
rthumb 4.48815 -66.9107
lclavicle -2.29348e-014 3.97569e-016
lhumerus -43.566 12.8905 77.6944
lradius 13.3895
lwrist -16.6158
lhand -24.0312 -20.4352
lfingers 7.12502
lthumb 2.44718 9.53049
rfemur -14.6925 -3.19822 30.2909
rtibia 32.0163
rfoot -17.0847 17.1638
rtoes 10.6952
lfemur -36.6668 4.85479 -17.1705
ltibia 56.4369
lfoot -14.9348 4.60105
ltoes -12.3302
206
root 8.1594 16.4552 8.29625 7.94391 -0.704905 -4.51699
lowerback 1.76815 3.24774 6.0197
upperback -2.77749 4.59627 1.18589
thorax -3.49312 2.14203 -2.33794
lowerneck -10.0717 -2.1129 -2.47623
upperneck 13.7586 -2.97386 3.3553
head 5.9063 -1.31877 1.22606
rclavicle 9.96408e-015 2.98177e-015
rhumerus -27.172 -5.1126 -85.3629
rradius 45.0683
rwrist -10.1853
rhand -19.7475 -40.8142
rfingers 7.12502
rthumb 6.5836 -70.6918
lclavicle 9.96408e-015 2.98177e-015
lhumerus -45.5052 17.4936 72.603
lradius 11.7069
lwrist -23.632
lhand -22.9623 -19.7263
lfingers 7.12502
lthumb 3.4795 10.225
rfemur -13.1205 -4.33124 30.3595
rtibia 31.1186
rfoot -16.316 18.5638
rtoes 10.8234
lfemur -37.3291 4.9823 -17.0479
ltibia 53.4501
lfoot -15.5455 5.25563
ltoes -15.3711
207
root 8.16765 16.4565 8.56 8.04603 -1.0894 -4.84942
lowerback 1.68184 3.38189 6.35293
upperback -2.7178 4.7773 1.21187
thorax -3.34477 2.22922 -2.49178
lowerneck -10.2658 -2.05903 -2.59073
upperneck 13.7509 -2.89238 3.44837
head 5.93768 -1.27622 1.27931
rclavicle -7.71533e-015 2.18663e-015
rhumerus -25.7785 -3.63958 -85.591
rradius 46.9011
rwrist -10.8708
rhand -20.6228 -38.0417
rfingers 7.12502
rthumb 5.73852 -67.944
lclavicle -7.71533e-015 2.18663e-015
lhumerus -48.3845 22.9773 65.9355
lradius 10.2769
lwrist -32.5152
lhand -21.8789 -19.604
lfingers 7.12502
lthumb 4.5257 10.3277
rfemur -11.8042 -5.05337 30.5056
rtibia 30.2005
rfoot -15.5377 19.7335
rtoes 11.1996
lfemur -38.0267 4.99039 -16.7896
ltibia 50.2598
lfoot -16.0667 5.52361
ltoes -17.0844
208
root 8.16791 16.4529 8.81358 8.36748 -1.52324 -4.83493
lowerback 1.59341 3.51231 6.24603
upperback -2.8191 4.94368 1.14496
thorax -3.38833 2.31092 -2.50433
lowerneck -10.2958 -2.01143 -2.58075
upperneck 13.6771 -2.80804 3.32653
head 5.91501 -1.24419 1.24589
rclavicle 7.23576e-014 3.4191e-014
rhumerus -24.8802 -1.68736 -85.7831
rradius 49.0484
rwrist -12.0712
rhand -23.3667 -38.1053
rfingers 7.12502
rthumb 3.08897 -68.0626
lclavicle 7.23576e-014 3.4191e-014
lhumerus -49.3248 22.7594 65.3973
lradius 9.29069
lwrist -33.0015
lhand -21.0948 -18.2305
lfingers 7.12502
lthumb 5.2828 11.6836
rfemur -10.6977 -5.15716 30.2727
rtibia 29.2784
rfoot -14.7693 20.5938
rtoes 12.33
lfemur -38.7428 4.72704 -16.8122
ltibia 46.8564
lfoot -16.4969 5.81002
ltoes -18.5348
209
root 8.17628 16.4487 9.07664 8.67017 -2.03792 -5.04156
lowerback 1.35544 3.73991 6.49895
upperback -2.88418 5.23745 1.09541
thorax -3.27129 2.45252 -2.68637
lowerneck -9.80453 -1.96924 -2.47619
upperneck 13.0778 -2.72546 3.08509
head 5.6356 -1.22475 1.16366
rclavicle -6.70029e-014 -1.64991e-014
rhumerus -23.9928 0.222691 -85.7768
rradius 51.1314
rwrist -13.147
rhand -27.6103 -36.4876
rfingers 7.12502
rthumb -1.00954 -66.465
lclavicle -6.70029e-014 -1.64991e-014
lhumerus -50.2007 22.3688 64.9489
lradius 8.12635
lwrist -33.2782
lhand -21.8869 -17.6944
lfingers 7.12502
lthumb 4.51799 12.2374
rfemur -9.44689 -5.53532 30.1495
rtibia 28.2732
rfoot -13.9426 21.6834
rtoes 12.3149
lfemur -39.2636 4.68252 -16.6094
ltibia 43.3307
lfoot -16.8837 5.78608
ltoes -17.1263
210
root 8.19444 16.4469 9.34947 8.86629 -2.5334 -5.65726
lowerback 1.07754 4.00971 7.30978
upperback -2.84956 5.5937 1.10098
thorax -2.97603 2.61997 -3.10678
lowerneck -9.36197 -1.958 -2.43467
upperneck 12.3899 -2.70122 3.03588
head 5.34375 -1.22212 1.14766
rclavicle -3.88003e-014 -1.19271e-015
rhumerus -22.5175 1.36285 -85.6261
rradius 52.4744
rwrist -13.3549
rhand -27.0013 -38.9796
rfingers 7.12502
rthumb -0.421331 -68.9589
lclavicle -3.88003e-014 -1.19271e-015
lhumerus -51.1298 21.8396 64.4889
lradius 7.11718
lwrist -33.52
lhand -23.1645 -17.7947
lfingers 7.12502
lthumb 3.28424 12.1598
rfemur -7.91324 -6.22465 30.3314
rtibia 27.0807
rfoot -13.0275 22.9337
rtoes 10.7974
lfemur -39.626 4.73413 -15.9259
ltibia 39.7606
lfoot -17.3203 5.55496
ltoes -13.7173
211
root 8.21166 16.4528 9.62473 9.12764 -3.17339 -6.10329
lowerback 0.925702 4.25401 7.8344
upperback -2.94966 5.92392 1.10037
thorax -2.91258 2.77109 -3.38886
lowerneck -9.257 -1.94536 -2.56593
upperneck 12.2054 -2.67134 3.10123
head 5.27034 -1.21108 1.19282
rclavicle 3.09607e-014 1.2921e-014
rhumerus -21.2029 2.47928 -85.4195
rradius 53.6247
rwrist -13.155
rhand -23.9187 -40.0385
rfingers 7.12502
rthumb 2.55586 -70.003
lclavicle 3.09607e-014 1.2921e-014
lhumerus -52.4772 21.3194 63.8104
lradius 6.60269
lwrist -32.9502
lhand -21.596 -15.9922
lfingers 7.12502
lthumb 4.79887 13.9334
rfemur -6.39157 -6.68275 30.3015
rtibia 25.6662
rfoot -11.7519 24.0724
rtoes 8.48304
lfemur -39.9749 4.63958 -15.3036
ltibia 36.226
lfoot -17.7004 6.01172
ltoes -14.6321
212
root 8.23215 16.4558 9.90789 9.39329 -3.96374 -6.34999
lowerback 0.867113 4.48573 8.06882
upperback -3.12288 6.24404 1.13263
thorax -3.00596 2.91662 -3.48889
lowerneck -9.58023 -1.94982 -2.76807
upperneck 12.6096 -2.63275 2.98004
head 5.45093 -1.20549 1.18785
rclavicle 5.15846e-014 3.73715e-014
rhumerus -20.434 3.89586 -85.0656
rradius 55.2801
rwrist -12.9315
rhand -23.2115 -39.1715
rfingers 7.12502
rthumb 3.23889 -69.1266
lclavicle 5.15846e-014 3.73715e-014
lhumerus -53.9956 20.9186 63.116
lradius 6.0768
lwrist -31.9069
lhand -23.1619 -16.8104
lfingers 7.12502
lthumb 3.28672 13.144
rfemur -4.86838 -7.27115 29.9852
rtibia 24.0871
rfoot -9.84048 25.4468
rtoes 7.44699
lfemur -40.187 4.37888 -14.7548
ltibia 32.8083
lfoot -17.8625 6.75791
ltoes -17.6508
213
root 8.2503 16.4476 10.1894 9.52433 -4.64466 -6.58698
lowerback 0.815537 4.67581 8.24537
upperback -3.11676 6.49707 1.18522
thorax -2.92963 3.04185 -3.52636
lowerneck -10.1443 -1.95296 -2.94067
upperneck 12.964 -2.59637 2.92463
head 5.6582 -1.19404 1.19675
rclavicle 4.14466e-014 1.17283e-014
rhumerus -19.5751 5.23567 -84.6603
rradius 57.1207
rwrist -12.9158
rhand -23.0939 -38.1878
rfingers 7.12502
rthumb 3.35246 -68.1412
lclavicle 4.14466e-014 1.17283e-014
lhumerus -55.1863 20.6192 62.5289
lradius 5.45887
lwrist -30.7426
lhand -24.3299 -16.2095
lfingers 7.12502
lthumb 2.15871 13.7593
rfemur -3.09805 -7.91874 29.5994
rtibia 22.3909
rfoot -7.54425 26.7851
rtoes 9.30902
lfemur -40.2396 3.67322 -13.9144
ltibia 29.6526
lfoot -18.0479 7.04027
ltoes -16.7385
214
root 8.26215 16.4453 10.4555 9.76891 -5.3793 -6.90014
lowerback 0.842592 4.91419 8.5191
upperback -3.18984 6.82709 1.12437
thorax -2.94651 3.19548 -3.74382
lowerneck -10.0812 -1.86987 -3.05034
upperneck 12.6759 -2.50172 3.20237
head 5.5592 -1.13474 1.31008
rclavicle -3.4601e-014 -3.1408e-014
rhumerus -18.7502 6.30011 -84.3905
rradius 58.8125
rwrist -12.8278
rhand -21.8498 -34.5121
rfingers 7.12502
rthumb 4.55377 -64.4432
lclavicle -3.4601e-014 -3.1408e-014
lhumerus -56.1565 20.1609 61.8483
lradius 4.8837
lwrist -29.2335
lhand -24.7174 -15.4531
lfingers 7.12502
lthumb 1.78446 14.5192
rfemur -1.56514 -7.87617 29.3837
rtibia 20.8738
rfoot -5.43246 27.4194
rtoes 12.6198
lfemur -40.3684 2.82303 -12.774
ltibia 26.6124
lfoot -18.2321 8.20932
ltoes -16.1664
215
root 8.26035 16.4234 10.7072 9.72131 -7.01259 -8.10959
lowerback 1.71463 5.43347 9.39611
upperback -3.29531 7.65633 1.29335
thorax -3.36699 3.56119 -4.14196
lowerneck -9.76425 -1.78279 -3.20669
upperneck 12.3389 -2.41392 3.58815
head 5.40371 -1.07636 1.46561
rclavicle -1.66172e-014 7.95139e-015
rhumerus -18.1629 7.22994 -84.1172
rradius 60.6323
rwrist -12.5598
rhand -22.6383 -35.7114
rfingers 7.12502
rthumb 3.79237 -65.6574
lclavicle -1.66172e-014 7.95139e-015
lhumerus -57.2043 19.5958 61.1246
lradius 4.4514
lwrist -27.5382
lhand -24.8839 -15.8829
lfingers 7.12502
lthumb 1.62369 14.0907
rfemur 0.204801 -5.33295 30.3978
rtibia 19.4805
rfoot -5.04074 26.2694
rtoes 13.0177
lfemur -40.0242 2.22296 -10.159
ltibia 23.8807
lfoot -18.9267 10.4941
ltoes -16.2144
